<svg width="31" height="28" viewBox="0 0 31 28" fill="none" xmlns="http://www.w3.org/2000/svg">
<path d="M10.5 21C11.9438 21 13.125 19.8188 13.125 18.375C13.125 16.9313 11.9438 15.75 10.5 15.75C9.05625 15.75 7.875 16.9313 7.875 18.375C7.875 19.8188 9.05625 21 10.5 21ZM18.375 9.1875H17.0625V6.5625C17.0625 2.94 14.1225 0 10.5 0C6.8775 0 3.9375 2.94 3.9375 6.5625V9.1875H2.625C1.18125 9.1875 0 10.3688 0 11.8125V24.9375C0 26.3813 1.18125 27.5625 2.625 27.5625H18.375C19.8188 27.5625 21 26.3813 21 24.9375V11.8125C21 10.3688 19.8188 9.1875 18.375 9.1875ZM6.43125 6.5625C6.43125 4.31813 8.25562 2.49375 10.5 2.49375C12.7444 2.49375 14.5688 4.31813 14.5688 6.5625V9.1875H6.43125V6.5625ZM18.375 24.9375H2.625V11.8125H18.375V24.9375Z" fill="#666D71"/>
<path d="M27.5 26L24.4689 22.25H30.5311L27.5 26Z" fill="#666D71"/>
</svg>
