<svg width="15" height="20" viewBox="0 0 15 20" fill="none" xmlns="http://www.w3.org/2000/svg">
<path d="M7.33333 14.6667C8.34167 14.6667 9.16667 13.8417 9.16667 12.8333C9.16667 11.825 8.34167 11 7.33333 11C6.325 11 5.5 11.825 5.5 12.8333C5.5 13.8417 6.325 14.6667 7.33333 14.6667ZM12.8333 6.41667H11.9167V4.58333C11.9167 2.05333 9.86333 0 7.33333 0C4.80333 0 2.75 2.05333 2.75 4.58333V6.41667H1.83333C0.825 6.41667 0 7.24167 0 8.25V17.4167C0 18.425 0.825 19.25 1.83333 19.25H12.8333C13.8417 19.25 14.6667 18.425 14.6667 17.4167V8.25C14.6667 7.24167 13.8417 6.41667 12.8333 6.41667ZM4.49167 4.58333C4.49167 3.01583 5.76583 1.74167 7.33333 1.74167C8.90083 1.74167 10.175 3.01583 10.175 4.58333V6.41667H4.49167V4.58333ZM12.8333 17.4167H1.83333V8.25H12.8333V17.4167Z" fill="#009933"/>
</svg>
