<svg width="20" height="26" viewBox="0 0 20 26" fill="none" xmlns="http://www.w3.org/2000/svg">
<path d="M7.1 14.4733L10 12.2943L12.8875 14.4733L11.7875 10.9448L14.6875 8.66667H11.1375L10 5.18762L8.8625 8.66667H5.3125L8.2 10.9448L7.1 14.4733ZM20 9.90476C20 4.43238 15.525 0 10 0C4.475 0 0 4.43238 0 9.90476C0 12.4181 0.95 14.6962 2.5 16.4419V26L10 23.5238L17.5 26V16.4419C19.05 14.6962 20 12.4181 20 9.90476ZM10 2.47619C14.1375 2.47619 17.5 5.80667 17.5 9.90476C17.5 14.0029 14.1375 17.3333 10 17.3333C5.8625 17.3333 2.5 14.0029 2.5 9.90476C2.5 5.80667 5.8625 2.47619 10 2.47619Z" fill="#376572"/>
</svg>
