<svg width="22" height="27" viewBox="0 0 22 27" fill="none" xmlns="http://www.w3.org/2000/svg">
<g clip-path="url(#clip0_104_18)">
<path d="M14.6666 10.0835C16.1883 10.0835 17.4075 8.85516 17.4075 7.3335C17.4075 5.81183 16.1883 4.5835 14.6666 4.5835C13.145 4.5835 11.9166 5.81183 11.9166 7.3335C11.9166 8.85516 13.145 10.0835 14.6666 10.0835ZM7.33329 10.0835C8.85496 10.0835 10.0741 8.85516 10.0741 7.3335C10.0741 5.81183 8.85496 4.5835 7.33329 4.5835C5.81163 4.5835 4.58329 5.81183 4.58329 7.3335C4.58329 8.85516 5.81163 10.0835 7.33329 10.0835ZM7.33329 11.9168C5.19746 11.9168 0.916626 12.9893 0.916626 15.1252V17.4168H13.75V15.1252C13.75 12.9893 9.46913 11.9168 7.33329 11.9168ZM14.6666 11.9168C14.4008 11.9168 14.0983 11.9352 13.7775 11.9627C14.8408 12.7327 15.5833 13.7685 15.5833 15.1252V17.4168H21.0833V15.1252C21.0833 12.9893 16.8025 11.9168 14.6666 11.9168Z" fill="#376572"/>
</g>
<path d="M13.195 22.1233L14.5 21.2014L15.7994 22.1233L15.3044 20.6305L16.6094 19.6667H15.0119L14.5 18.1948L13.9881 19.6667H12.3906L13.69 20.6305L13.195 22.1233ZM19 20.1905C19 17.8752 16.9862 16 14.5 16C12.0138 16 10 17.8752 10 20.1905C10 21.2538 10.4275 22.2176 11.125 22.9562V27L14.5 25.9524L17.875 27V22.9562C18.5725 22.2176 19 21.2538 19 20.1905ZM14.5 17.0476C16.3619 17.0476 17.875 18.4567 17.875 20.1905C17.875 21.9243 16.3619 23.3333 14.5 23.3333C12.6381 23.3333 11.125 21.9243 11.125 20.1905C11.125 18.4567 12.6381 17.0476 14.5 17.0476Z" fill="#376572"/>
<defs>
<clipPath id="clip0_104_18">
<rect width="22" height="22" fill="white"/>
</clipPath>
</defs>
</svg>
