<svg width="26" height="26" viewBox="0 0 26 26" fill="none" xmlns="http://www.w3.org/2000/svg">
<path d="M21.1012 13.8558C21.1445 13.5308 21.1662 13.195 21.1662 12.8375C21.1662 12.4908 21.1445 12.1442 21.0903 11.8192L23.2895 10.1075C23.4845 9.95583 23.5387 9.66333 23.4195 9.44667L21.3395 5.85C21.2095 5.61167 20.9387 5.53583 20.7003 5.61167L18.1112 6.65167C17.5695 6.24 16.9953 5.89333 16.3562 5.63333L15.9662 2.88167C15.9228 2.62167 15.7062 2.4375 15.4462 2.4375H11.2862C11.0262 2.4375 10.8203 2.62167 10.777 2.88167L10.387 5.63333C9.74783 5.89333 9.16283 6.25083 8.632 6.65167L6.04283 5.61167C5.8045 5.525 5.53367 5.61167 5.40367 5.85L3.3345 9.44667C3.2045 9.67417 3.24783 9.95583 3.4645 10.1075L5.66367 11.8192C5.6095 12.1442 5.56617 12.5017 5.56617 12.8375C5.56617 13.1733 5.58783 13.5308 5.642 13.8558L3.44283 15.5675C3.24783 15.7192 3.19367 16.0117 3.31283 16.2283L5.39283 19.825C5.52283 20.0633 5.79367 20.1392 6.032 20.0633L8.62117 19.0233C9.16283 19.435 9.737 19.7817 10.3762 20.0417L10.7662 22.7933C10.8203 23.0533 11.0262 23.2375 11.2862 23.2375H15.4462C15.7062 23.2375 15.9228 23.0533 15.9553 22.7933L16.3453 20.0417C16.9845 19.7817 17.5695 19.435 18.1003 19.0233L20.6895 20.0633C20.9278 20.15 21.1987 20.0633 21.3287 19.825L23.4087 16.2283C23.5387 15.99 23.4845 15.7192 23.2787 15.5675L21.1012 13.8558ZM13.3662 16.7375C11.2212 16.7375 9.46617 14.9825 9.46617 12.8375C9.46617 10.6925 11.2212 8.9375 13.3662 8.9375C15.5112 8.9375 17.2662 10.6925 17.2662 12.8375C17.2662 14.9825 15.5112 16.7375 13.3662 16.7375Z" fill="#376572"/>
</svg>
