<svg width="22" height="27" viewBox="0 0 22 27" fill="none" xmlns="http://www.w3.org/2000/svg">
<g clip-path="url(#clip0_94_21)">
<mask id="mask0_94_21" style="mask-type:luminance" maskUnits="userSpaceOnUse" x="0" y="0" width="22" height="22">
<path d="M22 0H0V22H22V0Z" fill="white"/>
</mask>
<g mask="url(#mask0_94_21)">
<path d="M14.6668 10.0835C16.1885 10.0835 17.4076 8.85516 17.4076 7.3335C17.4076 5.81183 16.1885 4.5835 14.6668 4.5835C13.1451 4.5835 11.9168 5.81183 11.9168 7.3335C11.9168 8.85516 13.1451 10.0835 14.6668 10.0835ZM7.33341 10.0835C8.85508 10.0835 10.0743 8.85516 10.0743 7.3335C10.0743 5.81183 8.85508 4.5835 7.33341 4.5835C5.81175 4.5835 4.58341 5.81183 4.58341 7.3335C4.58341 8.85516 5.81175 10.0835 7.33341 10.0835ZM7.33341 11.9168C5.19758 11.9168 0.916748 12.9893 0.916748 15.1252V17.4168H13.7501V15.1252C13.7501 12.9893 9.46925 11.9168 7.33341 11.9168ZM14.6668 11.9168C14.401 11.9168 14.0985 11.9352 13.7776 11.9627C14.841 12.7327 15.5835 13.7685 15.5835 15.1252V17.4168H21.0835V15.1252C21.0835 12.9893 16.8026 11.9168 14.6668 11.9168Z" fill="black"/>
</g>
<path d="M13.195 22.1233L14.5 21.2014L15.7994 22.1233L15.3044 20.6305L16.6094 19.6667H15.0119L14.5 18.1948L13.9881 19.6667H12.3906L13.69 20.6305L13.195 22.1233ZM19 20.1905C19 17.8752 16.9862 16 14.5 16C12.0138 16 10 17.8752 10 20.1905C10 21.2538 10.4275 22.2176 11.125 22.9562V27L14.5 25.9524L17.875 27V22.9562C18.5725 22.2176 19 21.2538 19 20.1905ZM14.5 17.0476C16.3619 17.0476 17.875 18.4567 17.875 20.1905C17.875 21.9243 16.3619 23.3333 14.5 23.3333C12.6381 23.3333 11.125 21.9243 11.125 20.1905C11.125 18.4567 12.6381 17.0476 14.5 17.0476Z" fill="black"/>
</g>
<defs>
<clipPath id="clip0_94_21">
<rect width="22" height="27" fill="white"/>
</clipPath>
</defs>
</svg>
